<?xml version="1.0" encoding="UTF-8" standalone="no"?>
<!-- Created with Inkscape (http://www.inkscape.org/) -->

<svg
   width="100mm"
   height="100mm"
   viewBox="0 0 100 100"
   version="1.1"
   id="svg5"
   xml:space="preserve"
   xmlns="http://www.w3.org/2000/svg"
   xmlns:svg="http://www.w3.org/2000/svg"><defs
     id="defs2" /><g
     id="g896"
     style="display:inline"
     transform="translate(-56.420833,-34.460417)"><g
       id="g4981"
       transform="translate(0.1290105,-0.255726)"><path
         id="ellipse890"
         style="opacity:1;fill:#000000;stroke:#ffffff;stroke-width:0.511453;stroke-dasharray:none;stroke-opacity:1"
         d="M 92.97073,34.716143 A 31.45482,49.900003 0 0 0 61.515625,84.616142 31.45482,49.900003 0 0 0 92.97073,134.51615 h 26.64285 A 31.45482,49.900003 0 0 0 151.06802,84.616142 31.45482,49.900003 0 0 0 119.61358,34.716143 Z m 13.61347,25.900162 a 15.320588,24.304619 0 0 1 0.15594,0.03832 15.320588,24.304619 0 0 1 0.42222,0.12422 15.320588,24.304619 0 0 1 0.42024,0.142061 15.320588,24.304619 0 0 1 0.4176,0.161223 15.320588,24.304619 0 0 1 0.41495,0.179065 15.320588,24.304619 0 0 1 0.41099,0.198225 15.320588,24.304619 0 0 1 0.40768,0.216066 15.320588,24.304619 0 0 1 0.40372,0.233906 15.320588,24.304619 0 0 1 0.39909,0.252407 15.320588,24.304619 0 0 1 0.39447,0.269587 15.320588,24.304619 0 0 1 0.38985,0.286767 15.320588,24.304619 0 0 1 0.38455,0.304606 15.320588,24.304619 0 0 1 0.37928,0.321126 15.320588,24.304619 0 0 1 0.37266,0.338305 15.320588,24.304619 0 0 1 0.36738,0.354823 15.320588,24.304619 0 0 1 0.36077,0.370682 15.320588,24.304619 0 0 1 0.3535,0.38654 15.320588,24.304619 0 0 1 0.3469,0.402399 15.320588,24.304619 0 0 1 0.33962,0.417595 15.320588,24.304619 0 0 1 0.33236,0.432132 15.320588,24.304619 0 0 1 0.32443,0.447329 15.320588,24.304619 0 0 1 0.3165,0.461206 15.320588,24.304619 0 0 1 0.30791,0.47508 15.320588,24.304619 0 0 1 0.29998,0.488957 15.320588,24.304619 0 0 1 0.29073,0.502171 15.320588,24.304619 0 0 1 0.28148,0.514065 15.320588,24.304619 0 0 1 0.2729,0.52728 15.320588,24.304619 0 0 1 0.26297,0.539174 15.320588,24.304619 0 0 1 0.25373,0.550407 15.320588,24.304619 0 0 1 0.24382,0.560979 15.320588,24.304619 0 0 1 0.23325,0.572211 15.320588,24.304619 0 0 1 0.22399,0.582122 15.320588,24.304619 0 0 1 0.21277,0.592035 15.320588,24.304619 0 0 1 0.20284,0.601283 15.320588,24.304619 0 0 1 0.19162,0.609875 15.320588,24.304619 0 0 1 0.18105,0.618464 15.320588,24.304619 0 0 1 0.16982,0.626393 15.320588,24.304619 0 0 1 0.15924,0.633 15.320588,24.304619 0 0 1 0.14735,0.64027 15.320588,24.304619 0 0 1 0.13611,0.646876 15.320588,24.304619 0 0 1 0.12492,0.652162 15.320588,24.304619 0 0 1 0.11303,0.657449 15.320588,24.304619 0 0 1 0.10178,0.662733 15.320588,24.304619 0 0 1 0.0899,0.6667 15.320588,24.304619 0 0 1 0.078,0.670662 15.320588,24.304619 0 0 1 0.0661,0.673307 15.320588,24.304619 0 0 1 0.0542,0.676611 15.320588,24.304619 0 0 1 0.0417,0.677931 15.320588,24.304619 0 0 1 0.0304,0.680574 15.320588,24.304619 0 0 1 0.0178,0.680576 15.320588,24.304619 0 0 1 0.006,0.681895 15.320588,24.304619 0 0 1 -0.0522,2.007365 15.320588,24.304619 0 0 1 -0.1566,1.99283 15.320588,24.304619 0 0 1 -0.25967,1.966397 15.320588,24.304619 0 0 1 -0.36144,1.924772 15.320588,24.304619 0 0 1 -0.46055,1.87191 15.320588,24.304619 0 0 1 -0.55568,1.804514 15.320588,24.304619 0 0 1 -0.6482,1.725885 15.320588,24.304619 0 0 1 -0.73608,1.634701 15.320588,24.304619 0 0 1 -0.81801,1.532949 15.320588,24.304619 0 0 1 -0.89532,1.41996 15.320588,24.304619 0 0 1 -0.96668,1.29837 15.320588,24.304619 0 0 1 -1.03011,1.16755 15.320588,24.304619 0 0 1 -1.08826,1.02813 15.320588,24.304619 0 0 1 -1.13716,0.88211 15.320588,24.304619 0 0 1 -1.1801,0.73013 15.320588,24.304619 0 0 1 -1.21314,0.57353 15.320588,24.304619 0 0 1 -1.23957,0.41231 15.320588,24.304619 0 0 1 -0.11299,0.0225 19.423844,36.89036 0 0 1 -4.68011,-23.995883 19.423844,36.89036 0 0 1 4.68209,-23.999837 z" /><path
         id="path1124"
         style="display:inline;opacity:1;fill:none;stroke:#ffffff;stroke-width:0.511453;stroke-dasharray:none;stroke-opacity:1"
         d="m 121.32624,47.725691 a 19.423844,36.89036 0 0 0 -14.74204,12.890614 15.320588,24.304619 0 0 1 0.15594,0.03832 15.320588,24.304619 0 0 1 0.42222,0.12422 15.320588,24.304619 0 0 1 0.42024,0.142061 15.320588,24.304619 0 0 1 0.4176,0.161223 15.320588,24.304619 0 0 1 0.41495,0.179065 15.320588,24.304619 0 0 1 0.41099,0.198225 15.320588,24.304619 0 0 1 0.40768,0.216066 15.320588,24.304619 0 0 1 0.40372,0.233906 15.320588,24.304619 0 0 1 0.39909,0.252407 15.320588,24.304619 0 0 1 0.39447,0.269587 15.320588,24.304619 0 0 1 0.38985,0.286767 15.320588,24.304619 0 0 1 0.38455,0.304606 15.320588,24.304619 0 0 1 0.37928,0.321126 15.320588,24.304619 0 0 1 0.37266,0.338305 15.320588,24.304619 0 0 1 0.36738,0.354823 15.320588,24.304619 0 0 1 0.36077,0.370682 15.320588,24.304619 0 0 1 0.3535,0.38654 15.320588,24.304619 0 0 1 0.3469,0.402399 15.320588,24.304619 0 0 1 0.33962,0.417595 15.320588,24.304619 0 0 1 0.33236,0.432132 15.320588,24.304619 0 0 1 0.32443,0.447329 15.320588,24.304619 0 0 1 0.3165,0.461206 15.320588,24.304619 0 0 1 0.30791,0.47508 15.320588,24.304619 0 0 1 0.29998,0.488957 15.320588,24.304619 0 0 1 0.29073,0.502171 15.320588,24.304619 0 0 1 0.28148,0.514065 15.320588,24.304619 0 0 1 0.2729,0.52728 15.320588,24.304619 0 0 1 0.26297,0.539174 15.320588,24.304619 0 0 1 0.25373,0.550407 15.320588,24.304619 0 0 1 0.24382,0.560979 15.320588,24.304619 0 0 1 0.23325,0.572211 15.320588,24.304619 0 0 1 0.22399,0.582122 15.320588,24.304619 0 0 1 0.21277,0.592035 15.320588,24.304619 0 0 1 0.20284,0.601283 15.320588,24.304619 0 0 1 0.19162,0.609875 15.320588,24.304619 0 0 1 0.18105,0.618464 15.320588,24.304619 0 0 1 0.16982,0.626393 15.320588,24.304619 0 0 1 0.15924,0.633 15.320588,24.304619 0 0 1 0.14735,0.64027 15.320588,24.304619 0 0 1 0.13611,0.646876 15.320588,24.304619 0 0 1 0.12492,0.652162 15.320588,24.304619 0 0 1 0.11303,0.657449 15.320588,24.304619 0 0 1 0.10178,0.662733 15.320588,24.304619 0 0 1 0.0899,0.6667 15.320588,24.304619 0 0 1 0.078,0.670662 15.320588,24.304619 0 0 1 0.0661,0.673307 15.320588,24.304619 0 0 1 0.0542,0.676611 15.320588,24.304619 0 0 1 0.0417,0.677931 15.320588,24.304619 0 0 1 0.0304,0.680574 15.320588,24.304619 0 0 1 0.0178,0.680576 15.320588,24.304619 0 0 1 0.006,0.681895 15.320588,24.304619 0 0 1 -0.0522,2.007365 15.320588,24.304619 0 0 1 -0.1566,1.99283 15.320588,24.304619 0 0 1 -0.25967,1.966397 15.320588,24.304619 0 0 1 -0.36144,1.924772 15.320588,24.304619 0 0 1 -0.46055,1.87191 15.320588,24.304619 0 0 1 -0.55568,1.804514 15.320588,24.304619 0 0 1 -0.6482,1.725885 15.320588,24.304619 0 0 1 -0.73608,1.634701 15.320588,24.304619 0 0 1 -0.81801,1.532949 15.320588,24.304619 0 0 1 -0.89532,1.41996 15.320588,24.304619 0 0 1 -0.96668,1.29837 15.320588,24.304619 0 0 1 -1.03011,1.16755 15.320588,24.304619 0 0 1 -1.08826,1.02813 15.320588,24.304619 0 0 1 -1.13716,0.88211 15.320588,24.304619 0 0 1 -1.1801,0.73013 15.320588,24.304619 0 0 1 -1.21314,0.57353 15.320588,24.304619 0 0 1 -1.23957,0.41231 15.320588,24.304619 0 0 1 -0.11299,0.0225 19.423844,36.89036 0 0 0 14.74402,12.89458 19.423844,36.89036 0 0 0 19.42348,-36.890463 19.423844,36.89036 0 0 0 -19.42348,-36.890452 z" /><path
         id="path729-8-8"
         style="display:inline;fill:none;stroke:#ffffff;stroke-width:0.511453;stroke-dasharray:none;stroke-opacity:1"
         d="m 106.58295,108.61205 a 15.320588,24.304619 0 0 0 0.11299,-0.0225 15.320588,24.304619 0 0 0 1.23957,-0.41231 15.320588,24.304619 0 0 0 1.21314,-0.57353 15.320588,24.304619 0 0 0 1.1801,-0.73014 15.320588,24.304619 0 0 0 1.13716,-0.8821 15.320588,24.304619 0 0 0 1.08826,-1.02812 15.320588,24.304619 0 0 0 1.03011,-1.16755 15.320588,24.304619 0 0 0 0.96668,-1.29839 15.320588,24.304619 0 0 0 0.89532,-1.41995 15.320588,24.304619 0 0 0 0.81801,-1.532953 15.320588,24.304619 0 0 0 0.73608,-1.634695 15.320588,24.304619 0 0 0 0.6482,-1.725885 15.320588,24.304619 0 0 0 0.55568,-1.804513 15.320588,24.304619 0 0 0 0.46055,-1.871911 15.320588,24.304619 0 0 0 0.36144,-1.924771 15.320588,24.304619 0 0 0 0.25967,-1.966398 15.320588,24.304619 0 0 0 0.1566,-1.992829 15.320588,24.304619 0 0 0 0.0522,-2.007365 15.320588,24.304619 0 0 0 -0.006,-0.681895 15.320588,24.304619 0 0 0 -0.0178,-0.680576 15.320588,24.304619 0 0 0 -0.0304,-0.680574 15.320588,24.304619 0 0 0 -0.0417,-0.677932 15.320588,24.304619 0 0 0 -0.0542,-0.67661 15.320588,24.304619 0 0 0 -0.0661,-0.673307 15.320588,24.304619 0 0 0 -0.078,-0.670662 15.320588,24.304619 0 0 0 -0.0899,-0.6667 15.320588,24.304619 0 0 0 -0.10178,-0.662734 15.320588,24.304619 0 0 0 -0.11303,-0.657449 15.320588,24.304619 0 0 0 -0.12492,-0.652162 15.320588,24.304619 0 0 0 -0.13611,-0.646876 15.320588,24.304619 0 0 0 -0.14735,-0.640269 15.320588,24.304619 0 0 0 -0.15924,-0.633 15.320588,24.304619 0 0 0 -0.16982,-0.626394 15.320588,24.304619 0 0 0 -0.18105,-0.618463 15.320588,24.304619 0 0 0 -0.19162,-0.609875 15.320588,24.304619 0 0 0 -0.20284,-0.601284 15.320588,24.304619 0 0 0 -0.21277,-0.592034 15.320588,24.304619 0 0 0 -0.22399,-0.582122 15.320588,24.304619 0 0 0 -0.23325,-0.572212 15.320588,24.304619 0 0 0 -0.24382,-0.560978 15.320588,24.304619 0 0 0 -0.25373,-0.550407 15.320588,24.304619 0 0 0 -0.26297,-0.539174 15.320588,24.304619 0 0 0 -0.2729,-0.527281 15.320588,24.304619 0 0 0 -0.28148,-0.514064 15.320588,24.304619 0 0 0 -0.29073,-0.502172 15.320588,24.304619 0 0 0 -0.29998,-0.488957 15.320588,24.304619 0 0 0 -0.30791,-0.47508 15.320588,24.304619 0 0 0 -0.3165,-0.461206 15.320588,24.304619 0 0 0 -0.32443,-0.447328 15.320588,24.304619 0 0 0 -0.33236,-0.432132 15.320588,24.304619 0 0 0 -0.33962,-0.417595 15.320588,24.304619 0 0 0 -0.3469,-0.402399 15.320588,24.304619 0 0 0 -0.3535,-0.38654 15.320588,24.304619 0 0 0 -0.36077,-0.370682 15.320588,24.304619 0 0 0 -0.36738,-0.354824 15.320588,24.304619 0 0 0 -0.37266,-0.338304 15.320588,24.304619 0 0 0 -0.37928,-0.321126 15.320588,24.304619 0 0 0 -0.38455,-0.304607 15.320588,24.304619 0 0 0 -0.38985,-0.286766 15.320588,24.304619 0 0 0 -0.39447,-0.269588 15.320588,24.304619 0 0 0 -0.39909,-0.252407 15.320588,24.304619 0 0 0 -0.40372,-0.233905 15.320588,24.304619 0 0 0 -0.40768,-0.216066 15.320588,24.304619 0 0 0 -0.41099,-0.198226 15.320588,24.304619 0 0 0 -0.41495,-0.179065 15.320588,24.304619 0 0 0 -0.4176,-0.161223 15.320588,24.304619 0 0 0 -0.42024,-0.142061 15.320588,24.304619 0 0 0 -0.42222,-0.124219 15.320588,24.304619 0 0 0 -0.15594,-0.03832 19.423844,36.89036 0 0 0 -4.68208,23.999838 19.423844,36.89036 0 0 0 4.6801,23.995884 z" /><path
         id="path729-8-6"
         style="display:inline;opacity:1;fill:none;stroke:#ffffff;stroke-width:0.511453;stroke-linecap:round"
         d="m 88.797431,74.55955 c 0.419007,-3.248369 1.036975,-6.381763 1.832825,-9.36674 0.795851,-2.984976 1.769581,-5.821534 2.900113,-8.476231 1.130532,-2.654697 2.417862,-5.127532 3.840914,-7.385063 1.42305,-2.257531 2.981817,-4.299758 4.655227,-6.093235 1.67341,-1.793478 3.46145,-3.338209 5.34305,-4.600747 1.8816,-1.262539 3.85676,-2.242887 5.90439,-2.9076 0.51191,-0.166177 1.02835,-0.312629 1.54898,-0.43883 0.52064,-0.126202 1.04548,-0.232153 1.57419,-0.317333 0.52871,-0.08518 1.06129,-0.149586 1.59741,-0.192699 0.53612,-0.04312 1.07578,-0.06493 1.61866,-0.06493 1.08575,-10e-7 2.15865,0.08727 3.21607,0.257627 1.05743,0.170358 2.09936,0.423805 3.12318,0.756162" /></g><g
       id="layer3" /></g></svg>
